<svg xmlns="http://www.w3.org/2000/svg" xmlns:xlink="http://www.w3.org/1999/xlink" version="1.1" x="0px" y="0px" viewBox="0 0 100 100" enable-background="new 0 0 100 100" xml:space="preserve"><path d="M49.5,11c-21.5,0-39,17.5-39,39s17.5,39,39,39s39-17.5,39-39S71,11,49.5,11z M24.7,62c0-1.5,0.1-3,0.4-4.5l19.7-19.9  c1.5-0.3,3.1-0.4,4.7-0.4c0.2,0,0.5,0,0.7,0L24.8,62.7C24.7,62.5,24.7,62.2,24.7,62z M25.8,54.7c2.4-7.8,8.5-13.9,16.2-16.4  L25.8,54.7z M52.2,37.4c1.5,0.2,3,0.5,4.4,0.9L25.8,69.1c-0.4-1.4-0.7-2.9-0.9-4.4L52.2,37.4z M58.2,38.8c1.2,0.5,2.4,1,3.5,1.7  L47.3,54.9c-7.6,1-13.6,7.1-14.7,14.7L28,74.2c-0.6-1.1-1.2-2.3-1.7-3.5L58.2,38.8z M36.8,83.3c-0.2-0.1-0.3-0.2-0.5-0.3l0.1-0.1  C36.6,83,36.7,83.2,36.8,83.3z M66,76.6l7.3-7.3c-1.8,5.9-5.8,10.9-11,14C64,81.4,65.3,79.1,66,76.6z M74.3,62  c0,1.5-0.1,3.1-0.4,4.5l-7.4,7.4c0.1-0.7,0.1-1.4,0.1-2.1c0-1.1-0.1-2.1-0.3-3.2l7.9-7.9C74.3,61.2,74.3,61.6,74.3,62z M65.9,67  c-0.4-1.4-1-2.7-1.7-3.9l8.9-8.9c0.5,1.5,0.8,3,1,4.6L65.9,67z M63.4,61.8c-0.8-1.1-1.7-2.1-2.8-3l10-10c0.8,1.2,1.4,2.5,2,3.8  L63.4,61.8z M59.4,57.9c-1-0.7-2.2-1.4-3.4-1.9l11.3-11.3c0.9,0.9,1.7,1.8,2.4,2.9L59.4,57.9z M54.4,55.5c-1.6-0.5-3.2-0.7-4.9-0.7  L63,41.2c1.1,0.7,2.2,1.5,3.2,2.4L54.4,55.5z M32.4,71.9c0,1.7,0.3,3.3,0.7,4.9l-1.9,1.9c-0.9-1-1.7-2.1-2.4-3.2L32.4,71.9z   M33.7,78.3c0.5,1.2,1.1,2.3,1.9,3.4l-0.4,0.4c-1-0.7-2-1.5-2.9-2.4L33.7,78.3z M66.1,83c6.2-4.9,10.2-12.5,10.2-21  c0-14.8-12-26.8-26.8-26.8S22.7,47.2,22.7,62c0,8.5,4,16.1,10.2,21c-12.1-6.1-20.4-18.6-20.4-33c0-20.4,16.6-37,37-37s37,16.6,37,37  C86.5,64.4,78.2,76.9,66.1,83z"/></svg>
