<svg xmlns="http://www.w3.org/2000/svg" xmlns:xlink="http://www.w3.org/1999/xlink"
    version="1.1" x="0px" y="0px" viewBox="0 0 100 125" enable-background="new 0 0 100 100"
    xml:space="preserve"><path d="M19.8,39.5c-2.4,0-4.6,0.9-6.4,2.5c-1.8,1.7-2.8,4-2.9,6.5s0.8,4.8,2.5,6.7c1.8,1.9,4.2,2.9,6.8,2.9c2.4,0,4.6-0.9,6.4-2.5  c1.8-1.7,2.8-4,2.9-6.5c0.1-2.5-0.8-4.8-2.5-6.7C24.8,40.5,22.3,39.5,19.8,39.5z M24.8,54.1c-1.4,1.3-3.1,2-5,2  c-2,0-3.9-0.8-5.3-2.3c-1.3-1.4-2-3.3-2-5.2s0.9-3.8,2.3-5.1c1.4-1.3,3.1-2,5-2c2,0,3.9,0.8,5.3,2.3c1.3,1.4,2,3.3,2,5.2  S26.2,52.7,24.8,54.1z M70.2,29.4L70.2,29.4c5.2,0,9.3-4.1,9.4-9.2c0-2.5-0.9-4.8-2.7-6.6c-1.7-1.8-4.1-2.8-6.6-2.8  c-5.1,0-9.2,4.1-9.3,9.2C61,25.2,65.1,29.4,70.2,29.4z M63.1,20.6l7.8-7.8c0.9,0.1,1.7,0.3,2.5,0.6l-9.7,9.7  C63.4,22.4,63.1,21.5,63.1,20.6z M77.6,20.1l-7.4,7.4l0-0.1c-0.9,0-1.8-0.2-2.6-0.5l9.5-9.5C77.5,18.3,77.6,19.2,77.6,20.1z   M73,26.9l4.2-4.2C76.4,24.7,74.9,26.2,73,26.9z M76.4,16.1L66.3,26.2c-0.7-0.5-1.3-1-1.8-1.7l10.2-10.2c0.3,0.2,0.6,0.5,0.9,0.7  C75.9,15.4,76.1,15.7,76.4,16.1z M68.5,13.1l-5.2,5.2C64,15.8,65.9,13.8,68.5,13.1z M69.9,68.4c-5.1,0-9.2,4.1-9.3,9.2  c0,2.5,0.9,4.8,2.7,6.6c1.7,1.8,4.1,2.8,6.5,2.8l0.1,0c5.1,0,9.2-4.1,9.3-9.2C79.3,72.6,75.2,68.4,69.9,68.4z M69.9,86  C69.9,86,69.9,86,69.9,86L69.9,86L69.9,86z M48.7,48.2c0.2,0.1,0.3,0.3,0.3,0.6c0,0.2-0.1,0.4-0.3,0.6l-5.4,3.6  C43.2,53,43.1,53,42.9,53c-0.1,0-0.2,0-0.3-0.1c-0.2-0.1-0.4-0.3-0.4-0.6v-1.6H32.1c-0.3,0-0.5-0.2-0.5-0.5v-3.1  c0-0.3,0.2-0.5,0.5-0.5h10.1v-1.6c0-0.2,0.1-0.5,0.4-0.6c0.2-0.1,0.5-0.1,0.7,0L48.7,48.2z M57.1,51L57.1,51  C57.1,51,57.1,51,57.1,51l-6.4,0v-4l6.4,0v0c0,0,0,0,0,0l0,0c3,0,5.8-1.1,7.9-3.2c1.8-1.7,2.9-4,3.2-6.4l-1.4,0  c-0.2,0-0.4-0.1-0.4-0.3c-0.1-0.2-0.1-0.4,0-0.5l3.5-5.3c0.1-0.1,0.2-0.2,0.4-0.2h0c0.2,0,0.3,0.1,0.4,0.2l3.5,5.3  c0.1,0.2,0.1,0.4,0,0.5s-0.3,0.3-0.4,0.3h0l-1.7,0c-0.3,3.5-1.9,6.8-4.5,9.3c-0.9,0.9-2,1.7-3.1,2.3c1.1,0.6,2.2,1.4,3.1,2.3  c2.4,2.4,3.9,5.4,4.4,8.8l1.4,0c0.2,0,0.4,0.1,0.4,0.3c0.1,0.2,0.1,0.4,0,0.5l-3.5,5.3c-0.1,0.1-0.2,0.2-0.4,0.2h0  c-0.2,0-0.3-0.1-0.4-0.2l-3.5-5.3c-0.1-0.2-0.1-0.4,0-0.5s0.3-0.3,0.4-0.3h0l1.6,0c-0.4-2.2-1.5-4.3-3.1-5.9  C62.9,52.1,60.1,50.9,57.1,51z"/></svg>
