<svg xmlns="http://www.w3.org/2000/svg" xmlns:xlink="http://www.w3.org/1999/xlink" version="1.1" x="0px" y="0px" viewBox="0 0 100 125" enable-background="new 0 0 100 100" xml:space="preserve"><path d="M75.3,40.4c0.5-2,0.7-4,0.7-6C76,20,64.2,8.2,49.8,8.2S23.6,20,23.6,34.4c0,2,0.3,4.1,0.8,6.1c-11,3.4-18.6,13.5-18.6,25  C5.8,80,17.5,91.8,32,91.8c6.8,0,13.1-2.6,18-7.2c4.9,4.6,11.3,7.2,18,7.2c14.5,0,26.2-11.8,26.2-26.2  C94.2,53.8,86.5,43.6,75.3,40.4z M26.8,41.9c0.2,0,0.4-0.1,0.6-0.1l-0.5,0.5C26.9,42.2,26.8,42.1,26.8,41.9z M55.8,61.1  C55.8,61.1,55.8,61.1,55.8,61.1l-1-1c0,0,0,0,0,0L55.8,61.1z M56.2,65.6c0,0.8,0,1.6-0.1,2.3l-9.3,9.3c-0.3-0.5-0.6-1.1-0.8-1.6  l10.2-10.2C56.2,65.4,56.2,65.5,56.2,65.6z M48.5,48.1L40,56.6c-0.6-0.2-1.1-0.5-1.6-0.8l4.4-4.4l4.5-4.5c0.4,0.4,0.9,0.7,1.3,1.1  C48.6,48,48.5,48.1,48.5,48.1z M54.9,52.9l4.7-4.7l6.9-6.9c0.5,0,1-0.1,1.6-0.1c0.3,0,0.6,0,0.9,0L55.7,54.6  C55.5,54,55.2,53.5,54.9,52.9z M53.2,50.1l7.7-7.7c1-0.3,2.1-0.6,3.2-0.7l-9.9,9.9C53.8,51.1,53.5,50.6,53.2,50.1z M51.4,48  c1.8-1.7,3.8-3.1,5.9-4.1l-5.1,5.1C52,48.6,51.7,48.3,51.4,48z M44.5,60.1c0.3,0.1,0.7,0.1,1,0.2l-1.3,1.3  C44.2,61.1,44.3,60.6,44.5,60.1z M50.7,60.6C50.7,60.6,50.7,60.6,50.7,60.6l0.5,0.5l0.6-0.6c0.9-0.1,1.9-0.2,2.8-0.4L44.3,70.5  c-0.1-0.7-0.3-1.4-0.3-2.1l7.2-7.2L50.7,60.6z M56.1,63.3L45.3,74.1c-0.2-0.6-0.4-1.2-0.6-1.8l11-11C55.9,61.9,56,62.6,56.1,63.3z   M56.9,57.6c-0.2-0.5-0.3-1-0.5-1.5l6.7-6.7l7.8-7.8c0.6,0.1,1.3,0.2,1.9,0.3c0,0.1-0.1,0.2-0.1,0.3L57.5,57.3l0,0  C57.3,57.4,57.1,57.5,56.9,57.6z M46.1,45.9L37,55c-0.5-0.3-1-0.6-1.5-1l9.1-9.1C45.2,45.2,45.6,45.6,46.1,45.9z M43.3,44.2  l-8.9,8.9c-0.4-0.4-0.9-0.7-1.3-1.1l8.6-8.6C42.2,43.6,42.8,43.9,43.3,44.2z M34.3,46.1l3.9-3.9c0.6,0.2,1.2,0.4,1.9,0.6L32,50.9  c-0.4-0.4-0.8-0.9-1.1-1.3L34.3,46.1z M30,48.3c-0.3-0.5-0.7-1-1-1.5l5.4-5.4c0.7,0.1,1.4,0.2,2.1,0.3L30,48.3z M28.3,45.5  c-0.3-0.5-0.5-1.1-0.8-1.7l1-1l1.4-1.4c0.7-0.1,1.4-0.1,2.1-0.1c0.1,0,0.3,0,0.4,0L28.3,45.5z M44.4,54.4c-0.5,1.1-0.9,2.2-1.3,3.3  c-0.5-0.1-1-0.3-1.5-0.5L44.4,54.4z M43.8,65.6c0-0.5,0-1.1,0.1-1.6l2.8-2.8l-0.8-0.8c0,0,0,0,0,0l0.8,0.8l0.6-0.6  c0.8,0.1,1.5,0.1,2.3,0.1l-5.8,5.8C43.8,66.1,43.8,65.9,43.8,65.6z M47.6,78.5l8.1-8.1c-0.2,1.2-0.6,2.3-1,3.4L48.6,80  C48.2,79.5,47.9,79,47.6,78.5z M50.4,80.2l2.4-2.4c-0.8,1.4-1.8,2.7-2.9,3.9c-0.2-0.2-0.3-0.4-0.5-0.6L50.4,80.2z M61.2,55.7  l9.8-9.8C68.8,50.1,65.4,53.5,61.2,55.7z M49.8,10.2C63.1,10.2,74,21.1,74,34.4c0,1.8-0.2,3.6-0.6,5.5c-1.8-0.4-3.6-0.6-5.3-0.6  c-6.8,0-13.1,2.5-18,7.2l0,0l0,0c-4.9-4.6-11.2-7.2-18-7.2c-1.9,0-3.8,0.2-5.8,0.7c-0.4-1.9-0.7-3.7-0.7-5.6  C25.6,21.1,36.4,10.2,49.8,10.2z M32,89.8c-13.4,0-24.2-10.9-24.2-24.2c0-10.6,7-20,17.1-23.1c2.7,8.3,9.3,14.7,17.7,17.2l0,0l0,0  c-0.5,2-0.7,4-0.7,5.9c0,6.6,2.4,12.8,6.8,17.6C44.1,87.4,38.2,89.8,32,89.8z M68,89.8c-6.2,0-12.1-2.3-16.6-6.6  c4.4-4.8,6.8-11.1,6.8-17.6c0-2-0.2-4-0.7-6l0,0l0,0c8.2-2.5,14.7-9,17.3-17.2c10.3,3,17.5,12.4,17.5,23.2  C92.2,78.9,81.4,89.8,68,89.8z"/></svg>
